<?xml version="1.0" encoding="UTF-8" standalone="no"?>
<!-- Created with Inkscape (http://www.inkscape.org/) -->

<svg
   xmlns:dc="http://purl.org/dc/elements/1.1/"
   xmlns:cc="http://creativecommons.org/ns#"
   xmlns:rdf="http://www.w3.org/1999/02/22-rdf-syntax-ns#"
   xmlns:svg="http://www.w3.org/2000/svg"
   xmlns="http://www.w3.org/2000/svg"
   xmlns:sodipodi="http://sodipodi.sourceforge.net/DTD/sodipodi-0.dtd"
   xmlns:inkscape="http://www.inkscape.org/namespaces/inkscape"
   width="48.793732mm"
   height="21.999939mm"
   viewBox="0 0 172.89118 77.952539"
   id="svg4242"
   version="1.1"
   inkscape:version="0.91 r13725"
   sodipodi:docname="Kalbe Farma.svg">
  <defs
     id="defs4244">
    <clipPath
       clipPathUnits="userSpaceOnUse"
       id="clipPath18">
      <path
         d="m 0,0 595.275,0 0,841.89 L 0,841.89 0,0 Z"
         id="path20"
         inkscape:connector-curvature="0" />
    </clipPath>
  </defs>
  <sodipodi:namedview
     id="base"
     pagecolor="#ffffff"
     bordercolor="#666666"
     borderopacity="1.0"
     inkscape:pageopacity="0.0"
     inkscape:pageshadow="2"
     inkscape:zoom="0.35"
     inkscape:cx="171.44559"
     inkscape:cy="-383.88088"
     inkscape:document-units="px"
     inkscape:current-layer="layer1"
     showgrid="false"
     fit-margin-top="0"
     fit-margin-left="0"
     fit-margin-right="0"
     fit-margin-bottom="0"
     inkscape:window-width="1366"
     inkscape:window-height="705"
     inkscape:window-x="-8"
     inkscape:window-y="-8"
     inkscape:window-maximized="1" />
  <metadata
     id="metadata4247">
    <rdf:RDF>
      <cc:Work
         rdf:about="">
        <dc:format>image/svg+xml</dc:format>
        <dc:type
           rdf:resource="http://purl.org/dc/dcmitype/StillImage" />
        <dc:title></dc:title>
      </cc:Work>
    </rdf:RDF>
  </metadata>
  <g
     inkscape:label="Layer 1"
     inkscape:groupmode="layer"
     id="layer1"
     transform="translate(283.58844,-70.528788)">
    <g
       transform="matrix(1.25,0,0,-1.25,-826.40415,176.7555)"
       id="g14">
      <g
         id="g16"
         clip-path="url(#clipPath18)">
        <g
           id="g22"
           transform="translate(508.2645,39.3637)">
          <path
             d="m 0,0 c -0.063,-0.09 -0.245,-0.082 -0.245,-0.082 l -3.971,0 c 0,0 -0.178,0.016 -0.249,0.094 -0.071,0.082 -0.017,0.248 -0.017,0.248 l 0.852,2.631 1.301,3.845 c 0.196,0.11 0.225,0 0.225,0 L 0,0.252 C 0,0.252 0.065,0.088 0,0 M 7.426,-7.5 0.414,11.131 c -0.329,0.691 -0.41,0.99 -1.462,0.99 l -2.38,0 c -1.054,0 -1.135,-0.299 -1.463,-0.99 L -11.904,-7.5 c -0.242,-0.662 -0.414,-0.98 0.39,-0.98 l 2.995,0 c 1.097,-0.006 1.091,-0.061 1.367,0.613 l 1.165,3.4 c 0.223,0.24 0.39,0.24 0.39,0.24 l 6.716,0 c 0,0 0.166,0 0.246,-0.052 L 2.677,-7.867 C 2.951,-8.541 2.945,-8.486 4.041,-8.48 l 2.995,0 c 0.804,0 0.634,0.318 0.39,0.98 m -35.872,-0.973 c 1.061,0 1.104,0.291 1.104,1.008 l -0.004,5.891 c 0,0 -0.004,0.226 0.128,0.258 0.161,0.043 0.278,-0.149 0.278,-0.149 l 5.62,-6.521 c 0.239,-0.272 0.41,-0.493 0.937,-0.493 l 4.788,0 c 0.572,0 0.713,0.297 0.233,0.959 l -8.212,8.993 c 0,0 -0.15,0.164 -0.15,0.375 0,0.216 0.156,0.365 0.156,0.365 l 7.852,9.131 c 0.332,0.478 0.194,0.777 -0.378,0.777 l -4.322,0 c -0.527,0 -0.695,-0.223 -0.938,-0.492 l -5.71,-6.484 c -0.282,-0.067 -0.282,0.078 -0.282,0.078 l 0.004,5.882 c 0,0.723 -0.043,1.016 -1.104,1.016 l -2.369,0 c -1.062,0 -1.11,-0.293 -1.11,-1.016 l 0,-18.57 c 0,-0.717 0.048,-1.008 1.11,-1.008 l 2.369,0 z m 86.165,16.35 5.572,0 c 0.712,0 1.01,0.047 1.01,1.027 l 0,2.196 c 0,0.982 -0.298,1.021 -1.01,1.021 l -9.562,0.004 c -0.718,0 -1.011,-0.043 -1.011,-1.094 l 0,-18.412 c 0,-1.055 0.293,-1.098 1.011,-1.098 l 9.562,0 c 0.712,0 1.01,0.041 1.01,1.026 l 0,2.176 c 0,0.984 -0.298,1.023 -1.01,1.023 l -5.572,0.008 c 0,0 -0.418,-0.018 -0.445,0.492 l 0,3.311 c 0.017,0.377 0.241,0.455 0.365,0.472 l 4.425,0 c 0.714,0 1.009,0.051 1.009,1.032 l 0,1.781 c 0,0.98 -0.295,1.021 -1.009,1.021 L 57.698,3.861 c 0,0 -0.397,-0.017 -0.424,0.491 l 0,3.037 c 0.027,0.5 0.445,0.488 0.445,0.488 M 41.923,2.711 c 0.959,0.57 2.394,2.146 2.394,4.211 0,0.119 0,0.244 -0.011,0.363 -0.167,2.922 -2.297,4.836 -5.61,4.836 l -6.555,0 c -1.055,0 -1.101,-0.293 -1.101,-1.017 l 0,-18.561 c 0,-0.725 0.046,-1.022 1.101,-1.022 l 6.83,0 c 4.916,0 6.972,2.868 6.972,6.071 0,2.513 -1.576,4.635 -4.02,5.119 m -6.324,5.402 2.083,0 c 1.317,0 2.079,-0.654 2.079,-1.898 0,-1.246 -0.79,-1.893 -2.079,-1.893 l -2.083,0 0,3.791 z m 2.868,-12.529 -2.868,0 0,4.129 2.868,0 c 1.35,0 2.758,-0.535 2.758,-2.068 0,-1.53 -1.242,-2.061 -2.758,-2.061 m -14.805,0.162 -5.693,0.008 c 0,0 -0.447,-0.02 -0.466,0.512 l 0.003,14.845 c 0,0.717 -0.046,1.01 -1.099,1.01 l -2.356,0 c -1.055,0 -1.101,-0.293 -1.101,-1.01 l 0,-17.787 c 0,-1.461 0.399,-1.803 1.771,-1.803 l 8.941,0 c 0.723,0 1.009,0.041 1.009,1.026 l 0,2.176 c 0,0.984 -0.286,1.023 -1.009,1.023"
             style="fill:#010101;fill-opacity:1;fill-rule:nonzero;stroke:none"
             id="path24"
             inkscape:connector-curvature="0" />
        </g>
        <g
           id="g26"
           transform="translate(457.9412,30.7855)">
          <path
             d="m 0,0 c -0.429,0.271 -0.383,1.158 -0.516,1.631 -3.236,11.318 -20.32,15.213 -17.673,28.068 0.302,1.432 0.556,2.989 1.55,4.369 0.292,0.407 1.332,0.965 0.831,-0.683 -0.867,-2.83 -0.713,-5.709 2.212,-9.168 1.451,-1.709 3.899,-3.354 7.52,-5.793 C 0.941,13.697 1.777,5.199 1.408,2.176 1.268,0.791 1.031,-0.658 0,0"
             style="fill:#87bd40;fill-opacity:1;fill-rule:nonzero;stroke:none"
             id="path28"
             inkscape:connector-curvature="0" />
        </g>
        <g
           id="g30"
           transform="translate(446.3279,81.0434)">
          <path
             d="m 0,0 c 0.298,-1.211 1.133,-2.947 3.386,-4.328 3.558,-2.188 5.071,-3.797 5.636,-4.375 4.163,-4.264 3.682,-8.174 2.586,-12.375 -0.406,-0.967 0.076,-1.986 1.212,-0.217 1.274,1.981 2.002,3.043 2.56,5.41 0.685,2.949 0.929,6.916 -3.932,10.844 -1.024,0.83 -2.092,1.535 -4.719,2.449 C 6.236,-2.422 3.508,-1.479 1.156,0.32 0.36,0.93 -0.222,0.879 0,0"
             style="fill:#076535;fill-opacity:1;fill-rule:nonzero;stroke:none"
             id="path32"
             inkscape:connector-curvature="0" />
        </g>
        <g
           id="g34"
           transform="translate(457.6522,82.227)">
          <path
             d="m 0,0 c 0.196,-0.398 0.154,-0.908 0.018,-1.359 -0.2,-0.653 -0.493,-1.157 -1.164,-1.34 -0.382,-0.1 -0.911,-0.108 -1.328,0.008 -1.154,0.32 -1.675,1.341 -1.366,2.375 0.303,1.033 1.33,1.689 2.485,1.379 C -0.699,0.879 -0.254,0.533 0,0"
             style="fill:#076535;fill-opacity:1;fill-rule:nonzero;stroke:none"
             id="path36"
             inkscape:connector-curvature="0" />
        </g>
        <g
           id="g38"
           transform="translate(443.9158,43.1859)">
          <path
             d="m 0,0 c -4.915,-5.27 -5.686,-11.125 -4.934,-16.623 0.167,-1.273 0.3,-2.529 0.316,-3.172 0.016,-0.777 -0.853,-1.113 -1.404,-0.31 -1.951,2.828 -3.216,6.144 -3.456,7.959 -0.68,5.195 0.385,10.933 5.331,16.001 1.572,1.608 2.815,2.518 5.036,3.848 1.473,0.885 7.199,2.871 9.056,3.66 2.853,1.203 5.086,2.875 6.203,4.174 0.743,0.863 1.314,0.668 0.815,-0.621 C 15.92,12.172 13.286,8.852 9.586,6.434 6.22,4.242 1.367,1.467 0,0"
             style="fill:#076535;fill-opacity:1;fill-rule:nonzero;stroke:none"
             id="path40"
             inkscape:connector-curvature="0" />
        </g>
        <g
           id="g42"
           transform="translate(446.6268,59.0863)">
          <path
             d="M 0,0 C -0.242,-0.529 -0.307,-1.248 -0.139,-1.834 0.105,-2.689 0.6,-3.297 1.43,-3.531 c 0.488,-0.139 1.137,-0.139 1.669,0.01 1.437,0.41 2.092,1.74 1.703,3.095 C 4.417,0.928 3.137,1.785 1.7,1.371 0.875,1.143 0.319,0.689 0,0"
             style="fill:#076535;fill-opacity:1;fill-rule:nonzero;stroke:none"
             id="path44"
             inkscape:connector-curvature="0" />
        </g>
        <g
           id="g46"
           transform="translate(444.0223,62.8637)">
          <path
             d="m 0,0 c 4.135,7.504 18.565,7.525 19.025,18.939 0.036,0.821 0.052,1.721 -0.213,2.637 -0.139,0.514 -0.691,0.947 -0.864,-0.101 C 17.543,19.063 15.782,14.484 8.235,10.832 1.842,7.742 -0.501,3.512 -1.004,0.676 -1.319,-1.113 -0.38,-0.693 0,0"
             style="fill:#87bd40;fill-opacity:1;fill-rule:nonzero;stroke:none"
             id="path48"
             inkscape:connector-curvature="0" />
        </g>
      </g>
    </g>
  </g>
</svg>
