<?xml version="1.0" encoding="utf-8"?>
<!-- Generator: Adobe Illustrator 26.0.1, SVG Export Plug-In . SVG Version: 6.00 Build 0)  -->
<svg version="1.1" id="Layer_1" xmlns="http://www.w3.org/2000/svg" xmlns:xlink="http://www.w3.org/1999/xlink" x="0px" y="0px"
	 viewBox="0 0 750 500" style="enable-background:new 0 0 750 500;" xml:space="preserve">
<style type="text/css">
	.st0{opacity:0.3;clip-path:url(#SVGID_00000168805844888771365480000001917905210719799219_);}
	.st1{fill:none;stroke:#D2D6D6;stroke-width:0.75;stroke-miterlimit:10;}
	.st2{opacity:0.9767;fill:none;stroke:#D2D6D6;stroke-width:0.7558;stroke-miterlimit:10;enable-background:new    ;}
	.st3{opacity:0.9535;fill:none;stroke:#D2D6D6;stroke-width:0.7616;stroke-miterlimit:10;enable-background:new    ;}
	.st4{opacity:0.9302;fill:none;stroke:#D3D7D7;stroke-width:0.7674;stroke-miterlimit:10;enable-background:new    ;}
	.st5{opacity:0.907;fill:none;stroke:#D3D7D7;stroke-width:0.7733;stroke-miterlimit:10;enable-background:new    ;}
	.st6{opacity:0.8837;fill:none;stroke:#D3D7D7;stroke-width:0.7791;stroke-miterlimit:10;enable-background:new    ;}
	.st7{opacity:0.8605;fill:none;stroke:#D3D7D7;stroke-width:0.7849;stroke-miterlimit:10;enable-background:new    ;}
	.st8{opacity:0.8372;fill:none;stroke:#D3D7D7;stroke-width:0.7907;stroke-miterlimit:10;enable-background:new    ;}
	.st9{opacity:0.814;fill:none;stroke:#D4D7D7;stroke-width:0.7965;stroke-miterlimit:10;enable-background:new    ;}
	.st10{opacity:0.7907;fill:none;stroke:#D4D8D8;stroke-width:0.8023;stroke-miterlimit:10;enable-background:new    ;}
	.st11{opacity:0.7674;fill:none;stroke:#D4D8D8;stroke-width:0.8081;stroke-miterlimit:10;enable-background:new    ;}
	.st12{opacity:0.7442;fill:none;stroke:#D4D8D8;stroke-width:0.814;stroke-miterlimit:10;enable-background:new    ;}
	.st13{opacity:0.7209;fill:none;stroke:#D5D8D8;stroke-width:0.8198;stroke-miterlimit:10;enable-background:new    ;}
	.st14{opacity:0.6977;fill:none;stroke:#D5D8D8;stroke-width:0.8256;stroke-miterlimit:10;enable-background:new    ;}
	.st15{opacity:0.6744;fill:none;stroke:#D5D9D9;stroke-width:0.8314;stroke-miterlimit:10;enable-background:new    ;}
	.st16{opacity:0.6512;fill:none;stroke:#D5D9D9;stroke-width:0.8372;stroke-miterlimit:10;enable-background:new    ;}
	.st17{opacity:0.6279;fill:none;stroke:#D5D9D9;stroke-width:0.843;stroke-miterlimit:10;enable-background:new    ;}
	.st18{opacity:0.6047;fill:none;stroke:#D6D9D9;stroke-width:0.8488;stroke-miterlimit:10;enable-background:new    ;}
	.st19{opacity:0.5814;fill:none;stroke:#D6D9D9;stroke-width:0.8547;stroke-miterlimit:10;enable-background:new    ;}
	.st20{opacity:0.5581;fill:none;stroke:#D6DADA;stroke-width:0.8605;stroke-miterlimit:10;enable-background:new    ;}
	.st21{opacity:0.5349;fill:none;stroke:#D6DADA;stroke-width:0.8663;stroke-miterlimit:10;enable-background:new    ;}
	.st22{opacity:0.5116;fill:none;stroke:#D6DADA;stroke-width:0.8721;stroke-miterlimit:10;enable-background:new    ;}
	.st23{opacity:0.4884;fill:none;stroke:#D7DADA;stroke-width:0.8779;stroke-miterlimit:10;enable-background:new    ;}
	.st24{opacity:0.4651;fill:none;stroke:#D7DADA;stroke-width:0.8837;stroke-miterlimit:10;enable-background:new    ;}
	.st25{opacity:0.4419;fill:none;stroke:#D7DADA;stroke-width:0.8895;stroke-miterlimit:10;enable-background:new    ;}
	.st26{opacity:0.4186;fill:none;stroke:#D7DBDB;stroke-width:0.8953;stroke-miterlimit:10;enable-background:new    ;}
	.st27{opacity:0.3953;fill:none;stroke:#D7DBDB;stroke-width:0.9012;stroke-miterlimit:10;enable-background:new    ;}
	.st28{opacity:0.3721;fill:none;stroke:#D8DBDB;stroke-width:0.907;stroke-miterlimit:10;enable-background:new    ;}
	.st29{opacity:0.3488;fill:none;stroke:#D8DBDB;stroke-width:0.9128;stroke-miterlimit:10;enable-background:new    ;}
	.st30{opacity:0.3256;fill:none;stroke:#D8DBDB;stroke-width:0.9186;stroke-miterlimit:10;enable-background:new    ;}
	.st31{opacity:0.3023;fill:none;stroke:#D8DCDC;stroke-width:0.9244;stroke-miterlimit:10;enable-background:new    ;}
	.st32{opacity:0.2791;fill:none;stroke:#D8DCDC;stroke-width:0.9302;stroke-miterlimit:10;enable-background:new    ;}
	.st33{opacity:0.2558;fill:none;stroke:#D9DCDC;stroke-width:0.936;stroke-miterlimit:10;enable-background:new    ;}
	.st34{opacity:0.2326;fill:none;stroke:#D9DCDC;stroke-width:0.9419;stroke-miterlimit:10;enable-background:new    ;}
	.st35{opacity:0.2093;fill:none;stroke:#D9DCDC;stroke-width:0.9477;stroke-miterlimit:10;enable-background:new    ;}
	.st36{opacity:0.186;fill:none;stroke:#D9DDDD;stroke-width:0.9535;stroke-miterlimit:10;enable-background:new    ;}
	.st37{opacity:0.1628;fill:none;stroke:#DADDDD;stroke-width:0.9593;stroke-miterlimit:10;enable-background:new    ;}
	.st38{opacity:0.1395;fill:none;stroke:#DADDDD;stroke-width:0.9651;stroke-miterlimit:10;enable-background:new    ;}
	.st39{opacity:0.1163;fill:none;stroke:#DADDDD;stroke-width:0.9709;stroke-miterlimit:10;enable-background:new    ;}
	.st40{opacity:9.300000e-02;fill:none;stroke:#DADDDD;stroke-width:0.9767;stroke-miterlimit:10;enable-background:new    ;}
	.st41{opacity:6.980000e-02;fill:none;stroke:#DADDDD;stroke-width:0.9826;stroke-miterlimit:10;enable-background:new    ;}
	.st42{opacity:4.650000e-02;fill:none;stroke:#DBDEDE;stroke-width:0.9884;stroke-miterlimit:10;enable-background:new    ;}
	.st43{opacity:2.330000e-02;fill:none;stroke:#DBDEDE;stroke-width:0.9942;stroke-miterlimit:10;enable-background:new    ;}
	.st44{fill:none;stroke:#DBDEDE;stroke-miterlimit:10;stroke-opacity:0;}
</style>
<g>
	<g>
		<g>
			<g>
				<g>
					<g>
						<defs>
							
								<rect id="SVGID_1_" x="201.9" y="-250.8" transform="matrix(0.1395 -0.9902 0.9902 0.1395 204.1624 483.3043)" width="356.5" height="750"/>
						</defs>
						<clipPath id="SVGID_00000140700807942638228900000014192425353645655471_">
							<use xlink:href="#SVGID_1_"  style="overflow:visible;"/>
						</clipPath>
						<g style="opacity:0.3;clip-path:url(#SVGID_00000140700807942638228900000014192425353645655471_);">
							<path class="st1" d="M790,216.2c-55.4,7.6-106,8.9-129.3,3.4c-64.5-15-90.8-94.6-112.4-100.8c-26.3-7.4-49.4,70.7-81.8,78.6
								c-31.5,7.5-81.8-36-125.8-26.6c-51.4,10.8-139.3,52.9-181.4,60.3c-51.7,9.1-52.8-166.4-87.1-171.3
								C32.3,54-44.1,236.2-63.1,271.2"/>
							<path class="st2" d="M789.5,213.2c-55.1,7.7-105.3,9-128.7,3.8c-64.8-14.5-91.1-92.8-112.6-99.4c-26.1-8-48.7,67.3-81.3,75
								c-31.5,7.5-81.4-34.7-124.7-24.9c-33.5,7.5-82,28.4-123.1,43.6c-21.8,8-41.9,14.4-56.6,16.8c-26,4.1-39.9-36.6-51-78.7
								c-11.2-42.4-20.2-86-37.2-87.7c-13.9-1.5-32.3,19.8-51.2,49.1c-34.9,54.2-73.4,134.9-86,157.6"/>
							<path class="st3" d="M788.9,210.3c-54.8,7.8-104.6,9.2-128,4.2c-65.2-14-91.6-91.1-112.8-98.1c-25.9-8.7-47.9,63.9-80.8,71.5
								c-31.5,7.4-80.9-33.5-123.7-23.3c-33.4,8-81,29.4-121.6,44.2c-21.6,7.9-41.6,14-56.5,16.1c-26.3,3.6-40.8-36.6-52.2-77.6
								C102,105.9,93,64.3,76,63.3c-13.8-0.8-31.9,20.4-50.6,49.2c-34.8,53.3-75.6,130.2-88.6,152.9"/>
							<path class="st4" d="M788.2,207.5c-54.4,7.9-103.8,9.3-127.4,4.5c-65.4-13.6-91.9-89.2-113-96.8c-25.9-9.3-47.1,60.4-80.3,68
								c-31.6,7.3-80.5-32.3-122.6-21.6c-33.4,8.4-80.1,30.2-119.9,44.7c-21.4,7.7-41.3,13.6-56.3,15.5
								c-26.5,3.3-41.7-36.4-53.3-76.4C103.9,105.1,95,65.4,78.2,65.1c-13.7-0.3-31.4,20.9-50,49.1
								c-34.7,52.5-77.8,125.6-91.2,148.3"/>
							<path class="st5" d="M787.6,204.6c-54.1,7.9-103.1,9.5-126.8,4.9c-65.7-13.2-92.3-87.4-113.3-95.5
								c-25.7-10-46.3,57-79.7,64.4c-31.7,7.1-80-31.1-121.5-20c-33.4,8.8-79.2,31.2-118.4,45.4c-21.1,7.5-41,13.1-56.2,14.7
								c-26.7,2.9-42.7-36.3-54.4-75.1c-11.8-39.1-20.8-77-37.5-76.6c-13.5,0.3-31,21.5-49.5,49.2c-34.6,51.5-80,120.8-93.6,143.5"
								/>
							<path class="st6" d="M787.1,201.6c-53.7,8-102.4,9.7-126.2,5.1c-66-12.6-92.7-85.7-113.5-94.2
								c-25.6-10.6-45.5,53.5-79.2,60.9c-31.8,6.9-79.6-29.8-120.4-18.4c-33.3,9.2-78.3,32.2-116.9,45.9
								c-20.8,7.5-40.8,12.7-56,14.1c-26.9,2.5-43.6-36.2-55.5-74c-11.9-37.9-21-74.1-37.6-72.9c-13.4,0.9-30.6,22.1-49,49
								c-34.5,50.7-82.2,116.3-96.2,139"/>
							<path class="st7" d="M786.4,198.6c-53.5,8.1-101.7,9.9-125.5,5.5c-66.3-12.2-93-83.8-113.6-93c-25.4-11.3-44.7,50-78.7,57.4
								c-31.9,6.9-79.2-28.6-119.3-16.7C316,161.6,271.8,185,234,198.6c-20.5,7.3-40.5,12.3-55.9,13.5c-27.2,2-44.6-36.1-56.6-72.7
								c-12.2-36.9-21.2-71.1-37.6-69.2c-13.2,1.6-30.3,22.7-48.5,49C0.9,168.9-49.1,230.7-63.5,253.5"/>
							<path class="st8" d="M785.7,195.8c-53.2,8.2-100.9,10-124.9,5.8c-66.5-11.7-93.4-82-113.9-91.6c-25.3-11.8-44,46.6-78.2,53.8
								c-31.9,6.7-78.8-27.3-118.3-15c-33.2,10.3-76.5,34.1-113.7,47.2c-20.3,7.2-40.2,11.9-55.7,12.8
								c-27.5,1.7-45.5-35.9-57.8-71.6c-12.3-35.8-21.4-68.2-37.7-65.5c-13.1,2.1-29.8,23.3-47.9,49C3.2,169.7-49,227.7-63.7,250.5"
								/>
							<path class="st9" d="M785.1,192.9c-52.8,8.2-100.2,10.2-124.3,6.2c-66.8-11.1-93.7-80.2-114.1-90.3
								c-25.1-12.4-43.2,43.2-77.7,50.4c-32,6.7-78.3-26-117.3-13.5c-33.1,10.8-75.5,34.9-112.1,47.8c-20.1,7.1-39.9,11.5-55.6,12.2
								c-27.6,1.3-46.5-35.8-58.9-70.3c-12.5-34.7-21.5-65.1-37.8-61.8C74.5,76.2,58,97.4,40,122.5C5.8,170.4-48.7,224.7-63.9,247.5
								"/>
							<path class="st10" d="M784.6,189.9c-52.5,8.3-99.4,10.4-123.6,6.5c-67.1-10.7-94.1-78.4-114.3-89
								c-25-13.1-42.5,39.8-77.1,46.8c-32,6.6-77.9-24.7-116.1-11.8c-33.1,11.2-74.6,35.9-110.6,48.5c-19.8,6.9-39.6,11.1-55.5,11.6
								c-27.9,0.9-47.4-35.8-60.1-69.1c-12.7-33.5-21.7-62.1-37.9-58.1c-12.8,3.2-29,24.4-46.9,48.9c-34.2,47-90.9,97.5-106.3,120.3
								"/>
							<path class="st11" d="M784,187c-52.1,8.3-98.7,10.5-123,6.9c-67.3-10.2-94.4-76.6-114.5-87.7c-24.9-13.7-41.7,36.2-76.6,43.3
								c-32.1,6.4-77.5-23.4-115.1-10.2c-33.1,11.7-73.8,36.9-108.9,49.1c-19.5,6.8-39.4,10.6-55.4,10.9
								c-28.1,0.5-48.3-35.6-61.1-67.9c-12.9-32.5-21.9-59.2-38-54.4c-12.7,3.9-28.7,24.9-46.4,48.9C11,172-48,218.7-63.9,241.6"/>
							<path class="st12" d="M783.3,184.2c-51.8,8.4-98.1,10.7-122.4,7.2c-67.7-9.7-94.8-74.8-114.8-86.4
								c-24.7-14.4-40.9,32.8-76.1,39.8c-32.2,6.4-77.1-22.2-114-8.5c-33,12.2-72.9,37.8-107.4,49.7c-19.3,6.7-39,10.2-55.2,10.2
								c-28.4,0.1-49.3-35.5-62.2-66.6c-13.1-31.3-22.1-56.3-38.1-50.7c-12.5,4.4-28.2,25.5-45.9,48.9
								c-34,45.1-95.2,88.1-111.5,110.9"/>
							<path class="st13" d="M782.7,181.3c-51.5,8.4-97.3,10.9-121.7,7.6c-68-9.3-95.1-73-115-85.1c-24.5-15.1-40.1,29.4-75.6,36.2
								c-32.3,6.3-76.5-20.8-113-6.8c-32.9,12.5-71.9,38.6-105.8,50.2c-19,6.5-38.7,9.8-55.1,9.6c-28.6-0.4-50.3-35.4-63.4-65.5
								c-13.2-30.2-22.3-53.3-38.1-47c-12.3,4.9-27.8,26.1-45.3,48.9c-33.9,44.3-97.4,83.5-114,106.4"/>
							<path class="st14" d="M782.1,178.3c-51.1,8.5-96.6,11-121.1,7.9c-68.2-8.8-95.6-71.2-115.1-83.8
								c-24.5-15.7-39.3,26-75.1,32.7c-32.4,6.1-76.1-19.5-111.9-5.3c-32.9,13.1-71,39.6-104.2,51c-18.8,6.4-38.5,9.4-54.9,8.9
								c-28.9-0.7-51.2-35.3-64.5-64.2C122,96.4,112.9,75.2,97.1,82.3c-12.2,5.6-27.5,26.6-44.8,48.8
								c-33.9,43.4-99.6,78.8-116.5,101.7"/>
							<path class="st15" d="M781.5,175.4c-50.8,8.6-95.8,11.2-120.4,8.3c-68.5-8.2-96-69.4-115.3-82.5
								c-24.4-16.4-38.5,22.5-74.5,29.2c-32.5,6-75.7-18.2-110.8-3.6c-32.8,13.7-70.1,40.5-102.7,51.7c-18.6,6.3-38.2,9-54.8,8.2
								c-29.1-1.2-52.1-35.1-65.6-63.1C123.8,95.6,114.7,76.1,99,84C87,90.1,72,111.2,54.8,132.8c-33.9,42.6-101.7,74.1-119,97"/>
							<path class="st16" d="M780.9,172.5c-50.5,8.6-95.1,11.3-119.9,8.6c-68.8-7.8-96.3-67.7-115.6-81.1
								c-24.2-16.9-37.8,19.1-74,25.6c-32.4,5.9-75.2-16.9-109.7-1.9c-32.8,14.2-69.3,41.4-101.2,52.2c-18.2,6.1-37.9,8.6-54.6,7.7
								c-29.4-1.5-53-35-66.7-61.8c-13.8-26.9-22.9-44.5-38.4-35.9c-12,6.7-26.6,27.8-43.7,48.7C23.4,176.2-46.7,204-64.4,227"/>
							<path class="st17" d="M780.3,169.6c-50.1,8.7-94.3,11.6-119.2,9c-69.1-7.3-96.7-65.8-115.8-79.9
								c-24-17.6-36.9,15.6-73.5,22.2c-32.5,5.8-74.8-15.5-108.6-0.3c-32.7,14.8-68.3,42.4-99.5,52.8c-18,6-37.6,8.1-54.5,7
								c-29.6-2-54-34.9-67.8-60.7c-13.9-25.9-23.1-41.6-38.5-32.2c-11.7,7.2-26.3,28.3-43.2,48.7C25.9,176.9-46.4,201-64.5,224.1"
								/>
							<path class="st18" d="M779.7,166.7c-49.8,8.7-93.7,11.7-118.6,9.2c-69.3-6.8-97-64.1-116-78.6c-23.9-18.3-36.3,12.2-73,18.6
								c-32.6,5.7-74.3-14.1-107.5,1.4c-32.7,15.3-67.4,43.3-98,53.4c-17.7,5.9-37.3,7.7-54.3,6.3c-29.9-2.3-54.9-34.8-69-59.4
								C129.3,93,120,79,104.8,89.3C93.3,97,79,118.1,62.1,137.9C28.5,177.7-46.1,198.1-64.5,221"/>
							<path class="st19" d="M779.1,163.8c-49.4,8.8-92.9,11.9-118,9.6c-69.6-6.4-97.4-62.3-116.2-77.3c-23.7-18.9-35.5,8.7-72.5,15
								c-32.7,5.6-73.8-12.8-106.5,3.1c-32.5,15.8-66.5,44.3-96.4,54.1c-17.5,5.7-37.1,7.3-54.2,5.7c-30.1-2.7-55.9-34.6-70.1-58.1
								C131,92.2,121.9,80.1,106.7,91c-11.5,8.3-25.6,29.4-42.1,48.7c-33.6,38.9-110.5,55.4-129.2,78.4"/>
							<path class="st20" d="M778.5,160.9c-49.1,8.9-92.2,12.1-117.3,9.9c-70-5.9-97.7-60.4-116.4-76c-23.6-19.5-34.7,5.3-71.9,11.6
								c-32.8,5.5-73.3-11.4-105.4,4.6c-32.5,16.4-65.5,45.2-94.9,54.8c-17.3,5.6-36.8,6.9-54,5.1c-30.4-3.2-56.7-34.6-71.1-57
								c-14.5-22.5-23.7-32.8-38.7-21.1c-11.4,8.9-25.1,30-41.6,48.6c-33.5,38-112.7,50.8-131.8,73.8"/>
							<path class="st21" d="M777.9,157.9c-48.8,9-91.5,12.3-116.7,10.3c-70.2-5.5-98.1-58.7-116.6-74.7c-23.4-20.3-33.9,1.9-71.4,8
								c-32.9,5.4-72.9-10.1-104.3,6.3c-32.4,16.9-64.7,46.1-93.2,55.3c-16.9,5.5-36.5,6.5-53.9,4.3c-30.6-3.6-57.8-34.4-72.3-55.7
								c-14.6-21.5-23.9-29.9-38.8-17.4C99.4,103.8,85.8,125,69.5,143C36,180.1-45.3,189-64.7,212.1"/>
							<path class="st22" d="M777.3,155c-48.4,9-90.7,12.5-116,10.6c-70.5-5-98.4-56.9-116.8-73.3c-23.3-20.9-33.1-1.5-70.9,4.4
								c-32.9,5.3-72.4-8.7-103.2,8c-32.3,17.5-63.8,47.1-91.7,56c-16.7,5.3-36.2,6.1-53.8,3.7c-30.9-3.9-58.7-34.3-73.4-54.6
								c-14.8-20.3-24.2-27-38.9-13.7c-11.1,10-24.4,31.1-40.6,48.5c-33.5,36.2-117,41.5-136.8,64.5"/>
							<path class="st23" d="M776.7,152.1c-48.1,9.1-90,12.6-115.5,11c-70.8-4.5-98.8-55.1-117.1-72c-23.1-21.4-32.3-5-70.4,1
								c-33,5.3-71.9-7.3-102.1,9.6c-32.2,18-62.9,48-90.2,56.6c-16.5,5.2-35.9,5.6-53.7,3.1c-31.1-4.4-59.6-34.2-74.5-53.3
								c-15-19.2-24.4-24.1-39-10c-11,10.6-24.1,31.7-40,48.5c-33.4,35.3-119.2,36.7-139.4,59.8"/>
							<path class="st24" d="M776.1,149.2c-47.8,9.2-89.3,12.8-114.8,11.3c-71-4.1-99.1-53.3-117.3-70.8c-23-22.1-31.5-8.5-69.9-2.5
								c-33,5-71.4-5.9-101.1,11.3c-32.1,18.6-62,48.8-88.5,57.2c-16.2,5.1-35.6,5.2-53.5,2.5c-31.3-4.8-60.6-34-75.7-52.2
								c-15.1-18.1-24.6-21.1-39-6.3C105.4,111,92.7,132,76.8,148.2c-33.5,34.4-121.3,32-142,55.1"/>
							<path class="st25" d="M775.5,146.3c-47.5,9.3-88.6,13-114.1,11.7c-71.3-3.6-99.5-51.6-117.5-69.4
								c-22.8-22.8-30.7-11.9-69.3-6c-33.1,5-70.9-4.5-100,12.9c-32,19.2-61,49.8-87,57.8c-15.9,4.9-35.3,4.8-53.4,1.8
								c-31.6-5.2-61.5-33.9-76.7-50.9s-24.8-18.1-39.1-2.6C107.5,113.2,95,134.3,79.3,150c-33.4,33.5-123.5,27.4-144.5,50.5"/>
							<path class="st26" d="M774.9,143.4c-47.2,9.3-87.8,13.1-113.6,12c-71.6-3-99.8-49.7-117.6-68.2c-22.7-23.4-30-15.3-68.8-9.6
								c-33.1,4.9-70.3-3.1-98.9,14.5c-31.9,19.7-60.2,50.7-85.4,58.5c-15.7,4.8-35.1,4.4-53.3,1.2c-31.8-5.6-62.4-33.7-77.9-49.8
								c-15.4-15.8-25-15.2-39.2,1.1c-10.6,12.2-23,33.3-38.4,48.4c-33.4,32.6-125.7,22.7-146.9,45.9"/>
							<path class="st27" d="M774.3,140.5c-46.8,9.4-87.1,13.2-112.9,12.4c-71.8-2.6-100.2-47.9-117.9-66.8
								C520.8,61.9,514.2,67.3,475,73c-33.2,4.8-69.9-1.7-97.8,16.2c-31.8,20.4-59.3,51.6-83.9,59.1c-15.4,4.7-34.8,4-53.1,0.5
								c-32.1-6-63.3-33.7-79-48.5c-15.6-14.7-25.2-12.3-39.3,4.9c-10.5,12.8-22.5,33.9-37.9,48.4c-33.3,31.6-127.9,17.9-149.5,41.1
								"/>
							<path class="st28" d="M773.7,137.6c-46.5,9.4-86.3,13.4-112.3,12.7c-72.2-2.1-100.5-46.2-118.1-65.5
								c-22.4-24.8-28.4-22.2-67.8-16.6c-33.3,4.7-69.2-0.4-96.7,17.9c-31.6,20.9-58.4,52.6-82.3,59.7c-15.2,4.5-34.5,3.5-53-0.2
								c-32.3-6.5-64.2-33.5-80.1-47.3c-15.8-13.6-25.4-9.4-39.4,8.5C113.5,120,101.7,141,86.6,155c-33.4,30.7-130,13.4-152.1,36.6"
								/>
							<path class="st29" d="M773.1,134.7c-46.1,9.5-85.6,13.6-111.7,13c-72.5-1.6-100.9-44.4-118.3-64.2
								c-22.2-25.3-27.6-25.6-67.3-20.2c-33.4,4.6-68.7,1.1-95.7,19.5c-31.4,21.5-57.5,53.5-80.7,60.3c-15,4.4-34.2,3.1-52.8-0.8
								c-32.6-6.8-65.1-33.4-81.3-46.1c-15.9-12.5-25.6-6.5-39.4,12.2c-10.2,13.9-21.9,35-36.8,48.3
								c-33.4,29.8-132.2,8.6-154.6,31.9"/>
							<path class="st30" d="M772.5,131.7c-45.8,9.5-85,13.8-111,13.3c-72.7-1.2-101.3-42.5-118.6-63c-22.1-26-26.8-29-66.8-23.6
								c-33.5,4.5-68.2,2.5-94.6,21.2c-31.3,22.1-56.6,54.4-79.2,60.9c-14.6,4.3-33.9,2.7-52.7-1.5c-32.8-7.2-66-33.2-82.4-44.8
								c-16.1-11.5-26-3.6-39.5,15.9c-10.1,14.5-21.6,35.5-36.3,48.2c-33.5,28.9-134.4,4-157.1,27.2"/>
							<path class="st31" d="M771.9,128.8c-45.5,9.5-84.2,13.9-110.4,13.7c-73-0.6-101.6-40.8-118.8-61.6
								c-21.9-26.7-26.1-32.5-66.3-27.2c-33.5,4.5-67.6,3.9-93.5,22.9c-31.1,22.8-55.7,55.3-77.6,61.6c-14.4,4.1-33.7,2.3-52.5-2
								c-33.1-7.6-66.9-33.2-83.5-43.7c-16.2-10.3-26.2-0.7-39.6,19.7c-10,15.1-21.2,36-35.8,48.3c-33.4,28-136.5-0.7-159.7,22.6"/>
							<path class="st32" d="M771.3,125.9c-45.1,9.7-83.5,14.1-109.7,14c-73.3-0.1-102-39-119-60.3c-21.8-27.3-25.3-35.9-65.7-30.8
								c-33.5,4.3-67.1,5.3-92.4,24.5c-31,23.4-54.8,56.2-76,62.2c-14.2,4-33.4,1.9-52.4-2.7c-33.3-8-67.9-33-84.6-42.4
								c-16.4-9.2-26.4,2.2-39.6,23.3c-9.9,15.6-20.9,36.5-35.3,48.2c-33.5,27-138.7-5.4-162.2,17.9"/>
							<path class="st33" d="M770.7,123c-44.8,9.7-82.7,14.3-109.2,14.4c-73.6,0.3-102.3-37.1-119.1-59
								c-21.6-28-24.5-39.4-65.3-34.2c-33.6,4.2-66.5,6.8-91.3,26.1c-30.7,23.9-53.9,57.1-74.5,62.8c-13.9,3.9-33,1.5-52.2-3.4
								c-33.6-8.4-68.7-32.9-85.7-41.3c-16.5-8.1-26.6,5.1-39.8,27c-9.8,16.2-20.6,37.1-34.8,48.2C65.3,189.7-42.1,153.7-66,177"/>
							<path class="st34" d="M770.1,120.1c-44.5,9.8-82,14.4-108.5,14.7c-73.8,0.8-102.7-35.5-119.4-57.7
								c-21.4-28.6-23.8-42.8-64.8-37.8c-33.7,4.1-65.9,8.2-90.3,27.8c-30.5,24.6-53,58.1-72.9,63.5c-13.7,3.7-32.8,1-52.1-4
								c-33.8-8.9-69.6-32.7-86.9-40c-16.6-7-26.8,8.1-39.9,30.6c-9.6,16.7-20.3,37.6-34.1,48.1C67.7,190.4-41.9,150.5-66,173.9"/>
							<path class="st35" d="M769.5,117.2c-44.1,9.9-81.2,14.6-107.8,15c-74.1,1.3-103-33.6-119.6-56.3
								c-21.2-29.2-23-46.3-64.3-41.3c-33.8,4-65.4,9.6-89.2,29.4c-30.3,25.2-52.1,59-71.3,64.1c-13.4,3.6-32.5,0.6-52-4.7
								c-34-9.2-70.4-32.6-87.9-38.9c-16.7-5.9-27.1,11.1-39.9,34.4c-9.5,17.3-19.9,38.2-33.6,48.1C70.2,191.2-41.5,147.6-66,171"/>
							<path class="st36" d="M768.9,114.3c-43.8,10-80.6,14.8-107.3,15.4c-74.5,1.7-103.4-31.8-119.8-55.2
								c-21.1-29.9-22.2-49.7-63.7-44.8c-33.8,3.9-64.8,11.1-88.1,31.1c-30.1,25.9-51.3,59.9-69.7,64.7c-13.2,3.4-32.2,0.2-51.9-5.4
								c-34.3-9.7-71.4-32.6-89.1-37.6c-16.8-4.8-27.3,14-40,38.1c-9.4,17.9-19.6,38.7-33.1,48c-33.8,23.2-147.5-24-172.4-0.7"/>
							<path class="st37" d="M768.2,111.3c-43.5,10-79.8,15-106.6,15.7c-74.7,2.2-103.7-30.1-120-53.8
								c-20.9-30.6-21.4-53.1-63.2-48.4c-33.9,3.9-64.2,12.5-87,32.8c-29.9,26.5-50.4,60.8-68.2,65.3c-12.9,3.3-31.9-0.3-51.7-6
								c-34.5-10-72.3-32.5-90.2-36.4c-16.9-3.7-27.5,16.9-40.1,41.8c-9.3,18.4-19.3,39.3-32.6,48c-33.8,22.2-149.7-28.8-174.9-5.3"
								/>
							<path class="st38" d="M767.6,108.4c-43.1,10.1-79.1,15.1-106,16.1c-75,2.7-104.1-28.3-120.3-52.5
								c-20.7-31.2-20.6-56.5-62.7-51.9c-33.9,3.7-63.6,13.9-85.9,34.4c-29.7,27-49.5,61.7-66.7,65.9c-12.7,3.1-31.6-0.6-51.6-6.7
								c-34.8-10.5-73.2-31.9-91.3-35.2c-17-3.1-27.7,19.8-40.1,45.4c-9.1,18.9-18.9,39.8-32,48c-33.9,21.3-151.8-33.4-177.4-10"/>
							<path class="st39" d="M767,105.5c-42.8,10.1-78.4,15.2-105.3,16.4c-75.3,3.1-104.4-26.4-120.4-51.2
								c-20.6-31.9-19.7-59.8-62.2-55.4c-33.9,3.7-63,15.4-84.9,36.1c-29.4,27.8-48.5,62.6-65,66.6c-12.4,3-31.4-1.1-51.4-7.3
								c-35-10.8-74-32.3-92.5-34c-17.3-1.5-28,22.8-40.3,49.2c-9,19.5-18.6,40.3-31.5,48c-34.1,20.4-154-37.9-180-14.5"/>
							<path class="st40" d="M766.4,102.6c-42.4,10.2-77.6,15.4-104.8,16.7c-75.5,3.6-104.8-24.7-120.6-49.8
								c-20.4-32.6-19.1-63.3-61.7-59c-34,3.6-62.3,16.8-83.8,37.7c-29.1,28.4-47.6,63.5-63.5,67.2c-12.2,2.8-31.1-1.5-51.3-7.9
								c-35.3-11.2-74.9-32.3-93.5-32.8c-17.4-0.5-28.3,25.7-40.3,52.9c-8.9,20.2-18.4,40.8-31,47.9
								c-34.1,19.2-156.2-42.7-182.5-19.3"/>
							<path class="st41" d="M765.8,99.7c-42.1,10.2-76.9,15.6-104.1,17c-75.8,4.1-105.1-22.9-120.9-48.5
								C520.5,35,522.5,1.5,479.7,5.8c-34.1,3.5-61.7,18.2-82.7,39.3c-28.8,29.1-46.7,64.4-62,67.8c-11.9,2.7-30.8-1.9-51.1-8.6
								c-35.5-11.7-75.8-32.2-94.6-31.5c-17.5,0.6-28.5,28.7-40.4,56.6c-8.9,20.7-18,41.3-30.5,47.9c-34.3,18.1-158.3-47.5-185.1-24
								"/>
							<path class="st42" d="M765.2,96.8c-41.8,10.3-76.1,15.7-103.4,17.4c-76.1,4.5-105.5-21.1-121.1-47.3
								C520.6,33.1,523.1-3.2,480,1c-34.2,3.4-61.1,19.7-81.6,41c-28.5,29.7-45.9,65.3-60.3,68.4c-11.7,2.5-30.5-2.4-51-9.3
								c-35.8-12.1-76.8-32-95.8-30.4c-17.7,1.6-28.7,31.6-40.5,60.2c-8.7,21.2-17.7,41.8-30,47.9c-34.4,17.1-160.5-52.1-187.6-28.5
								"/>
							<path class="st43" d="M764.5,94c-41.4,10.3-75.5,15.9-102.9,17.7c-76.4,5.1-105.8-19.3-121.3-46
								c-20-34.4-16.7-73.6-60.1-69.6c-34.3,3.3-60.5,21-80.6,42.7c-28.2,30.3-45,66.3-58.8,69.1c-11.4,2.3-30.2-2.7-50.8-9.9
								c-36-12.4-77.7-32.1-96.9-29.1c-17.8,2.6-29,34.5-40.5,64c-8.6,21.7-17.5,42.4-29.5,47.9C88.6,196.8-39.5,124-67,147.6"/>
							<path class="st44" d="M763.9,91.1C459.7,168.4,570.3-16.8,480.7-8.5c-83.1,7.7-114.4,109.6-136.7,113.9
								c-30.6,6.1-118.2-44.8-148.7-38.4c-31.3,6.5-41.9,103.7-69.5,115.5C90.9,197.4-39.1,121-67,144.6"/>
						</g>
					</g>
				</g>
			</g>
		</g>
	</g>
</g>
</svg>
